<?xml version="1.0" standalone="no"?><!DOCTYPE svg PUBLIC "-//W3C//DTD SVG 1.1//EN" "http://www.w3.org/Graphics/SVG/1.1/DTD/svg11.dtd"><svg t="1730946314579" class="icon" viewBox="0 0 1024 1024" version="1.1" xmlns="http://www.w3.org/2000/svg" p-id="1546" xmlns:xlink="http://www.w3.org/1999/xlink" width="200" height="200"><path d="M10.727619 824.807619l2.194286-41.691429v103.131429l-2.194286-39.009524z" fill="#177CB0" p-id="1547"></path><path d="M823.832381 992.060952v1.462858l-274.529524-1.950477-195.047619-1.219047H206.994286c-28.281905 0-56.56381-1.219048-84.601905-1.219048h-12.921905a73.142857 73.142857 0 0 1-54.857143-25.843809 69.241905 69.241905 0 0 1-11.702857-19.748572 125.805714 125.805714 0 0 1-6.095238-48.761905v-4.632381-347.91619q0-107.52-1.950476-215.04a44.860952 44.860952 0 0 0 0-8.045714v-3.169524l-2.681905-4.876191H22.918095v14.384762c0 7.801905-1.462857 15.36-1.706666 22.918096v10.971428C16.091429 390.095238 15.11619 420.327619 14.628571 450.56c0 68.754286-2.194286 137.508571-2.438095 206.262857s0 142.384762 0 213.577143a590.506667 590.506667 0 0 0 3.169524 65.097143 85.333333 85.333333 0 0 0 74.361905 73.142857c24.380952 2.438095 48.761905 2.925714 68.266666 3.169524H755.809524l-1.950476-4.632381 139.459047-6.582857h4.876191v-9.264762zM933.546667 1003.032381a53.394286 53.394286 0 0 0 31.451428-12.190476l12.921905-15.116191-46.08 17.066667zM1008.88381 365.714286l-1.462858-180.175238h2.681905v-19.504762-28.525715-14.140952a219.428571 219.428571 0 0 0-2.438095-39.984762A83.382857 83.382857 0 0 0 943.786667 15.60381a170.666667 170.666667 0 0 0-19.992381-3.900953l-9.752381-1.462857H609.52381c-62.415238 0-124.830476 0-187.245715 1.462857H292.571429c-38.278095 0-67.535238 0-95.085715 2.194286H102.64381A86.308571 86.308571 0 0 0 15.11619 97.52381 272.822857 272.822857 0 0 0 17.066667 138.24l1.462857 14.628571c0 5.607619 1.219048 11.215238 1.950476 16.822858v7.314285h9.99619a44.860952 44.860952 0 0 0 2.681905-17.066666V134.339048 102.4a59.001905 59.001905 0 0 1 16.822857-44.860952 78.262857 78.262857 0 0 1 56.076191-27.550477h123.611428q21.455238 0 43.154286 1.462858c15.36 0 31.695238 1.462857 51.2 1.462857h143.116191l334.262857-1.462857c14.384762 0 28.525714 0 42.666666-1.219048h6.826667v2.681905h70.948572a68.510476 68.510476 0 0 1 68.266666 66.803809c0 26.575238 1.462857 52.906667 1.950476 79.481905v63.146667c0 13.653333-1.706667 66.80381-1.950476 79.969523v343.04l1.950476 5.12h1.706667v211.139048a303.542857 303.542857 0 0 1-2.681905 55.588572v16.579047h9.508572v-1.950476h2.194285a103.375238 103.375238 0 0 0 6.095239-49.737143v-57.295238a268.190476 268.190476 0 0 0 0-52.175238h-1.950477c0-10.971429 1.219048-21.699048 1.706667-32.670476 1.219048-21.211429 2.438095-42.422857 2.925714-63.634286v-113.127619-73.142857-48.761905a24.380952 24.380952 0 0 1 1.950476-7.558095 56.807619 56.807619 0 0 0 1.706667-6.095238V365.714286zM930.133333 344.015238z" fill="#177CB0" p-id="1548"></path><path d="M930.133333 249.417143A10.24 10.24 0 0 1 926.47619 243.809524V215.771429c0-5.36381 0-8.045714 6.826667-7.801905a77.531429 77.531429 0 0 0 0-8.289524 120.198095 120.198095 0 0 1-4.388571-20.23619 281.112381 281.112381 0 0 1 0-28.281905l4.388571-1.706667c0-7.801905-1.706667-15.36-9.264762-19.992381a3.900952 3.900952 0 0 1-1.219047-1.950476 40.472381 40.472381 0 0 0-19.017143-22.186667 57.295238 57.295238 0 0 0-15.60381-5.851428A178.712381 178.712381 0 0 0 853.333333 91.428571h-99.961904l-275.504762-2.438095h-151.649524c-31.695238 1.462857-63.390476 4.144762-95.329524 5.36381h-60.952381a262.826667 262.826667 0 0 0-39.740952 7.070476 26.087619 26.087619 0 0 0-12.678096 5.851428 73.142857 73.142857 0 0 0-18.285714 35.84c0 1.706667 1.462857 2.194286 1.462857 2.681905v19.992381C100.693333 172.617143 97.52381 195.047619 97.52381 198.217143a32.426667 32.426667 0 0 1 0 11.702857v1.950476c0 9.99619 1.219048 19.992381 1.462857 29.744762a161.889524 161.889524 0 0 1 0 18.773333 84.845714 84.845714 0 0 0-2.438096 10.727619v16.335239c0 24.380952 2.194286 50.712381 2.925715 75.824761v51.68762c0 6.582857-2.194286 9.508571-8.777143 7.801904h-2.194286c10.48381 3.413333 10.48381 3.413333 7.801905 14.140953a118.247619 118.247619 0 0 0-4.632381 18.285714c-1.219048 16.579048-1.706667 33.158095-1.950476 48.761905v314.270476a298.179048 298.179048 0 0 0 0 44.373333 81.92 81.92 0 0 0 82.651428 70.704762h78.019048c20.967619 0 42.179048-1.706667 63.146667-2.438095 4.144762 0 8.777143-1.706667 11.215238 1.462857a24.380952 24.380952 0 0 1 7.314285-1.950476c16.579048 0 32.914286 2.194286 48.761905 2.438095 10.48381 0 21.699048 4.388571 31.207619-3.169524a6.582857 6.582857 0 0 1 3.169524 0h82.651429a191.634286 191.634286 0 0 0 24.380952 0 658.285714 658.285714 0 0 1 90.453333-3.413333c28.281905 0 56.56381-1.219048 84.601905-1.706667 6.339048 0 13.653333-1.462857 13.897143 8.533334h1.462857v-8.533334h12.921905l90.940952-4.632381h6.826667l30.963809 4.144762-4.632381 3.900953 2.925715 5.851428 9.020952-9.020952c1.219048 0 1.950476-3.169524 3.169524-3.169524a48.761905 48.761905 0 0 1 16.822857 0c2.438095 0 3.657143 5.851429 5.607619 8.777143h1.462857v-6.339048l6.826667 5.12 2.925714-3.900952a18.285714 18.285714 0 0 0 6.339048-1.219048 117.028571 117.028571 0 0 1 13.653333-10.971428 26.087619 26.087619 0 0 0 11.946667-19.504762 81.67619 81.67619 0 0 0 0-17.310476c0-15.60381-1.462857-31.451429-2.194286-47.055239 0-24.380952 3.413333-50.468571 0-75.824761v-1.950477l-2.194286 4.632381c-2.681905-7.314286-1.706667-9.99619 3.169524-11.946666v-12.434286c0-12.434286 0-24.380952-1.706666-37.302857a78.994286 78.994286 0 0 1-1.706667-21.455238c0-5.36381 2.681905-10.727619 2.681905-16.091429 0-10.24-1.219048-20.48-1.462857-30.963809v-54.125715c0-18.041905 1.706667-39.984762 1.950476-59.977143s0-36.571429 0-54.857142 1.950476-29.500952 1.950476-44.129524a157.744762 157.744762 0 0 0-2.194286-30.232381 125.318095 125.318095 0 0 1 0-42.666667v-66.072381a9.020952 9.020952 0 0 0 0-4.388571 7.314286 7.314286 0 0 1 0-9.996191 9.752381 9.752381 0 0 0 1.462857-9.99619z m-18.773333 661.455238h1.706667z" fill="#177CB0" p-id="1549"></path><path d="M610.742857 420.571429c4.144762-45.83619 8.289524-89.478095 11.946667-133.36381 1.706667-21.211429-2.194286-27.550476-17.310476-28.038095H529.066667c-8.777143 0-18.773333 0-18.773334-17.066667s8.777143-20.967619 19.260953-20.723809h80.700952c27.062857 0 44.129524 28.038095 40.472381 67.779047-3.900952 43.641905-8.045714 87.527619-12.190476 132.388572 24.380952 11.459048 29.500952 36.327619 26.331428 68.754285-1.706667 18.529524-2.194286 37.302857-2.438095 55.832381a308.662857 308.662857 0 0 1-30.963809 137.508572 280.380952 280.380952 0 0 0-30.476191 118.735238c0 14.140952-4.87619 21.699048-15.36 20.967619s-13.653333-12.190476-12.434286-24.380952a472.259048 472.259048 0 0 1 10.24-62.171429 368.39619 368.39619 0 0 1 20.72381-61.196191 394.727619 394.727619 0 0 0 32.426667-160.426666c0-56.56381 1.706667-56.56381-37.059048-56.56381h-37.546667c-27.306667 0-43.641905-26.819048-40.96-66.072381 2.194286-30.96381 5.851429-61.68381 8.289524-92.403809 0-14.384762 7.070476-19.260952 15.36-18.773334s13.409524 9.99619 12.190476 22.918096c-2.438095 28.769524-5.12 57.539048-7.558095 86.308571-2.194286 24.380952 0 29.988571 17.798095 29.988572h43.641905zM783.11619 257.706667c-3.413333 7.558095-6.095238 13.165714-8.289523 19.017143q-34.864762 84.845714-68.998096 170.666666c-2.438095 5.851429-4.388571 13.897143-8.045714 16.579048s-13.653333 7.314286-17.798095 4.144762-3.169524-16.091429-3.657143-24.380953c0-2.925714 2.194286-6.095238 3.413333-9.020952q43.154286-106.300952 86.552381-212.845714c10.971429-27.550476 20.72381-27.550476 31.695238 0l86.308572 208.457143a56.32 56.32 0 0 1 6.339047 18.285714c0 7.070476-1.219048 19.017143-4.144761 20.723809a17.066667 17.066667 0 0 1-16.579048-3.169523c-3.413333-2.194286-5.12-9.508571-7.314286-14.872381-24.380952-57.782857-47.299048-115.321905-71.192381-173.104762-2.194286-7.558095-5.12-12.921905-8.289524-20.48zM787.017143 809.447619h-88.015238c-8.289524 0-17.310476 0-17.554286-17.310476s7.070476-20.48 16.091429-20.48h170.666666c10.24 0 16.335238 7.558095 15.60381 24.380952s-8.777143 15.11619-17.066667 14.872381h-78.994286zM731.428571 569.051429c3.900952 49.980952 7.070476 99.961905 11.702858 149.699047 1.219048 13.653333-1.462857 24.380952-10.24 24.380953-5.12 0-13.897143-8.045714-15.116191-14.872381a1080.07619 1080.07619 0 0 1-11.702857-219.428572c0-14.140952 5.851429-24.380952 16.822857-21.699047s10.971429 12.190476 10.727619 24.380952v58.026667zM861.622857 552.472381q-8.045714 84.845714-16.335238 170.666667c-1.219048 12.921905-4.388571 24.380952-15.11619 20.967619s-11.215238-13.897143-10.24-27.306667c4.388571-69.973333 8.045714-140.190476 12.678095-210.407619a28.038095 28.038095 0 0 1 9.020952-18.529524c8.045714-3.900952 16.091429 1.706667 17.066667 15.116191s0 32.914286 0 48.761904zM788.967619 576.121905c3.413333 45.348571 6.826667 90.453333 10.48381 135.558095 0 12.434286 3.900952 24.380952-9.020953 28.769524s-15.847619-6.095238-17.798095-21.455238a1236.114286 1236.114286 0 0 1-9.020952-206.994286c0-13.653333 2.438095-24.380952 14.384761-24.380952s13.653333 13.165714 13.653334 27.306666v62.171429z" fill="#FFFFFF" p-id="1550"></path><path d="M781.653333 458.605714h-43.154285c-9.508571 0-16.822857-4.388571-17.310477-18.285714s7.314286-19.504762 16.335239-19.504762h91.67238c4.87619 0 12.921905 10.24 13.897143 17.310476 1.462857 12.190476-4.87619 19.992381-14.140952 19.748572zM567.344762 562.224762h-44.373333a13.165714 13.165714 0 0 1-14.140953-16.822857 24.380952 24.380952 0 0 1 14.384762-16.822857c29.013333-1.462857 58.270476 0 87.28381 0 8.777143 0 15.36 4.87619 14.872381 19.017142s-6.826667 16.091429-15.116191 15.60381h-42.910476zM314.270476 639.512381A333.531429 333.531429 0 0 1 195.047619 813.104762c-3.413333 2.438095-7.314286 7.314286-10.483809 6.582857a73.142857 73.142857 0 0 1-18.285715-8.777143 68.022857 68.022857 0 0 1 7.314286-24.380952c13.653333-14.628571 29.500952-26.087619 43.154286-40.716191a292.571429 292.571429 0 0 0 79.969523-155.062857c1.462857-8.533333 2.438095-17.554286 3.413334-26.331428a66.072381 66.072381 0 0 0 0-10.24h-37.302857c-32.182857 0-64.365714 3.900952-97.52381 3.900952-5.607619 0-14.872381-9.020952-16.579047-16.579048a15.11619 15.11619 0 0 1 13.897142-19.992381c28.281905-1.706667 56.56381-3.169524 85.089524-4.144761h52.662857v-146.285715-22.674285c0-13.897143 4.388571-24.380952 14.140953-24.380953s14.140952 9.508571 14.140952 22.918095v171.641905h81.432381c11.946667 0 24.380952 1.219048 35.84 2.194286a16.091429 16.091429 0 0 1 16.822857 19.504762c0 15.36-9.264762 18.773333-19.017143 18.285714-32.670476-1.950476-65.340952-3.413333-97.523809-4.87619h-19.017143c3.900952 22.674286 6.339048 42.179048 10.971429 60.464761A298.179048 298.179048 0 0 0 422.034286 755.809524a399.60381 399.60381 0 0 0 34.377143 30.47619 20.48 20.48 0 0 1 6.339047 26.819048c-4.632381 11.459048-10.971429 11.702857-18.529524 6.339048a327.192381 327.192381 0 0 1-124.099047-166.521905c-1.462857-3.413333-3.169524-7.070476-5.851429-13.409524z" fill="#FFFFFF" p-id="1551"></path><path d="M288.670476 256.731429c4.388571-17.310476-5.607619-48.761905 16.579048-46.567619s9.508571 29.500952 14.872381 48.761904h97.523809c36.815238 1.219048 58.270476 35.352381 56.32 88.259048v66.072381c0 14.140952 0 25.84381-11.946666 28.038095s-14.628571-10.727619-14.872381-24.380952c0-24.380952-1.462857-48.761905 0-73.142857 0-29.257143-8.045714-46.567619-28.769524-48.761905a3011.047619 3011.047619 0 0 0-140.921905-4.876191c-26.331429 0-52.906667 2.194286-79.238095 3.657143s-34.133333 12.921905-34.377143 51.687619c0 24.380952-1.462857 48.761905-2.681905 74.361905 0 14.140952-6.095238 21.699048-16.335238 19.504762s-11.215238-12.190476-10.727619-24.380952c0-24.380952 0-50.95619 1.462857-76.556191 0-50.95619 20.23619-80.457143 56.32-81.432381 29.257143 0 58.514286-1.219048 87.771429-1.706667a67.291429 67.291429 0 0 0 9.020952 1.462858z" fill="#FFFFFF" p-id="1552"></path><path d="M180.662857 422.521905a54.125714 54.125714 0 0 1 11.702857 5.363809c18.529524 14.628571 37.059048 28.769524 55.100953 44.373334a24.380952 24.380952 0 0 1 8.289523 32.182857c-6.826667 13.653333-15.36 7.558095-24.380952 0-16.822857-15.36-34.864762-28.769524-51.443809-44.617143A37.302857 37.302857 0 0 1 170.666667 438.857143c0-5.851429 6.582857-11.702857 9.99619-16.335238zM202.361905 349.866667a73.142857 73.142857 0 0 1 14.140952 7.801904c17.066667 13.897143 34.133333 27.794286 50.468572 43.154286a24.380952 24.380952 0 0 1 4.632381 30.232381c-6.339048 10.727619-13.165714 6.095238-20.48 0-17.066667-15.36-34.864762-28.525714-51.931429-43.885714a30.96381 30.96381 0 0 1-8.533333-21.455238c0.731429-6.095238 7.801905-10.971429 11.702857-15.847619z" fill="#FFFFFF" p-id="1553"></path></svg>